<svg xmlns="http://www.w3.org/2000/svg" xmlns:xlink="http://www.w3.org/1999/xlink">



<symbol id="github" fill-rule="evenodd" clip-rule="evenodd" stroke-linejoin="round" stroke-miterlimit="1.414" viewBox="0 0 512 512"><circle cx="256" cy="256" fill="#333333" r="256"/><path d="M256,93.9c-89.5,0-162.1,72.6-162.1,162.1c0,70.5,45,130.4,107.8,152.8c0.3,0.1,1.4,0.5,1.7,0.6    c0.9,0.3,1.9,0.5,2.9,0.5c5.3,0,9.5-4.3,9.5-9.5c0-0.3,0-0.5,0-0.8l0,0c0-8.6,0-19.5,0-28.2c-10.3,2.1-25.9,4.1-34.4,0    c-11-5.3-16.6-12.1-21.9-25.5c-6.6-16.3-21.8-20.8-22.4-23.6c-0.6-2.9,16.1-7.2,24.7,2.7c8.6,9.9,17.3,29.7,35.8,27.8    c9.1-0.9,15-2.4,18.7-3.5c0.7-6.4,2.8-14.3,8.1-19.9c-43.5-7.2-72.5-30.6-72.5-76.5c0-20.9,6-37.1,16.6-49.2    c-1.8-10-4.8-33.2,3.2-41.3c0,0,11.3-7,43.7,15.8c12.1-2.8,25.5-4.2,39.8-4.2l0,0c0.3,0,0.5,0,0.8,0c0.3,0,0.5,0,0.8,0l0,0    c14.4,0.1,27.8,1.5,39.8,4.2c32.4-22.8,43.7-15.8,43.7-15.8c8,8.2,5,31.4,3.2,41.3c10.6,12.2,16.6,28.4,16.6,49.2    c0,45.9-28.9,69.3-72.5,76.5c8.3,8.7,8.6,22.8,8.6,28.6c0,5.5,0,42.3,0,42.5c0,5.3,4.3,9.5,9.5,9.5c0.8,0,1.5-0.1,2.3-0.3    c0.2,0,0.8-0.2,1-0.3c63.5-22,109.1-82.3,109.1-153.3C418.1,166.4,345.5,93.9,256,93.9z" fill="#FFFFFF"/></symbol>

<symbol id="linkedin" fill-rule="evenodd" clip-rule="evenodd" stroke-linejoin="round" stroke-miterlimit="1.414" viewBox="0 0 20 20"><path d="M10 0.4c-5.302 0-9.6 4.298-9.6 9.6s4.298 9.6 9.6 9.6 9.6-4.298 9.6-9.6-4.298-9.6-9.6-9.6zM7.65 13.979h-1.944v-6.256h1.944v6.256zM6.666 6.955c-0.614 0-1.011-0.435-1.011-0.973 0-0.549 0.409-0.971 1.036-0.971s1.011 0.422 1.023 0.971c0 0.538-0.396 0.973-1.048 0.973zM14.75 13.979h-1.944v-3.467c0-0.807-0.282-1.355-0.985-1.355-0.537 0-0.856 0.371-0.997 0.728-0.052 0.127-0.065 0.307-0.065 0.486v3.607h-1.945v-4.26c0-0.781-0.025-1.434-0.051-1.996h1.689l0.089 0.869h0.039c0.256-0.408 0.883-1.010 1.932-1.010 1.279 0 2.238 0.857 2.238 2.699v3.699z" fill-rule="nonzero"/></symbol>

<symbol id="email" fill-rule="evenodd" clip-rule="evenodd" stroke-linejoin="round" stroke-miterlimit="1.414" viewBox="0 0 32 32"><path d="M16 0c-8.837 0-16 7.163-16 16s7.163 16 16 16 16-7.163 16-16-7.163-16-16-16zM8 8h16c0.286 0 0.563 0.061 0.817 0.177l-8.817 10.286-8.817-10.287c0.254-0.116 0.531-0.177 0.817-0.177zM6 22v-12c0-0.042 0.002-0.084 0.004-0.125l5.864 6.842-5.8 5.8c-0.045-0.167-0.069-0.34-0.069-0.517zM24 24h-16c-0.177 0-0.35-0.024-0.517-0.069l5.691-5.691 2.826 3.297 2.826-3.297 5.691 5.691c-0.167 0.045-0.34 0.069-0.517 0.069zM26 22c0 0.177-0.024 0.35-0.069 0.517l-5.8-5.8 5.865-6.842c0.003 0.041 0.004 0.083 0.004 0.125v12z" fill-rule="nonzero"/></symbol>

</svg>